<?xml version="1.0" standalone="no"?>
<!DOCTYPE svg PUBLIC "-//W3C//DTD SVG 20010904//EN"
 "http://www.w3.org/TR/2001/REC-SVG-20010904/DTD/svg10.dtd">
<svg version="1.0" xmlns="http://www.w3.org/2000/svg"
 width="612.000000pt" height="612.000000pt" viewBox="0 0 612.000000 612.000000"
 preserveAspectRatio="xMidYMid meet">
<metadata>
Created by potrace 1.14, written by Peter Selinger 2001-2017
</metadata>
<g transform="translate(0.000000,612.000000) scale(0.100000,-0.100000)"
fill="#000000" stroke="none">
<path d="M3030 4843 c-35 -2 -70 -9 -77 -15 -17 -13 -17 -62 0 -76 6 -5 102
-12 212 -15 149 -4 225 -11 299 -27 529 -113 951 -439 1194 -920 78 -154 79
-155 113 -155 27 0 35 5 43 26 16 47 -120 307 -252 482 -251 332 -652 582
-1068 666 -99 20 -312 42 -369 39 -16 -1 -59 -3 -95 -5z"/>
<path d="M2752 4788 c-19 -19 -15 -66 7 -78 41 -22 81 1 81 45 0 38 -61 60
-88 33z"/>
<path d="M2920 4590 c-300 -42 -587 -171 -818 -367 l-50 -43 -7 48 c-16 110
-77 192 -173 234 -66 28 -168 22 -237 -13 -56 -29 -116 -101 -134 -159 -8 -26
-11 -294 -11 -925 l0 -888 -55 -58 c-179 -187 -175 -472 8 -651 186 -182 469
-179 652 7 l61 61 84 -59 c281 -195 664 -298 997 -267 601 56 1086 412 1317
967 145 349 146 791 1 1151 -195 482 -616 833 -1134 943 -110 23 -393 34 -501
19z m480 -119 c283 -60 532 -192 719 -380 216 -219 351 -465 413 -754 29 -140
32 -440 5 -567 -62 -289 -199 -541 -403 -742 -199 -196 -427 -322 -697 -386
-102 -24 -129 -27 -307 -26 -162 0 -213 4 -297 22 -195 42 -372 118 -533 229
-72 50 -85 62 -82 83 14 120 13 232 -3 282 -25 77 -67 147 -119 198 l-46 44 0
777 0 777 72 67 c247 230 535 364 853 399 89 9 332 -4 425 -23z m-1554 -110
c25 -12 50 -33 65 -57 l24 -39 5 -921 5 -921 57 -52 c150 -137 168 -346 44
-503 -65 -81 -149 -122 -266 -126 -110 -5 -178 19 -255 89 -163 149 -157 401
12 547 52 45 53 47 53 99 0 48 2 53 23 53 33 0 67 28 67 54 0 29 -20 46 -57
50 l-28 3 -3 86 -3 86 38 3 c31 2 39 8 47 30 12 35 -15 68 -56 68 l-28 0 0 85
0 85 29 0 c16 0 37 7 45 16 34 34 8 84 -45 84 l-29 0 0 85 c0 82 1 85 23 85
33 0 67 28 67 54 0 30 -22 48 -60 50 l-30 1 0 87 0 88 35 0 c35 0 55 20 55 54
0 24 -29 46 -61 46 l-29 0 0 85 0 85 29 0 c53 0 79 50 45 84 -8 9 -29 16 -45
16 l-29 0 0 119 c0 130 7 161 48 205 54 57 133 71 208 37z"/>
<path d="M2173 1630 c-26 -10 -38 -43 -25 -67 12 -21 144 -102 234 -142 222
-100 452 -145 748 -145 91 0 177 3 192 7 39 10 54 42 34 71 -15 23 -18 24
-258 29 -262 6 -360 20 -522 73 -88 29 -227 93 -321 147 -45 26 -65 33 -82 27z"/>
<path d="M3465 1410 c-27 -29 -10 -74 28 -78 53 -6 77 46 39 81 -25 22 -45 21
-67 -3z"/>
</g>
</svg>
